<?xml version="1.0" encoding="UTF-8"?>
<svg width="1200" height="1200" viewBox="0 0 1200 1200" xmlns="http://www.w3.org/2000/svg">
<rect width="100%" height="100%" fill="#f5f5f0"/>
<path d="M 1120 113 L 1121 76 L 1120 71 L 1112 61 L 1105 57 L 1094 53 L 1065 50 L 1032 54 L 1016 53 L 915 54 L 886 55 L 865 55 L 848 56 L 831 56 L 806 60 L 803 62 L 794 72 L 790 74 L 787 90 L 790 92 L 792 96 L 792 109 L 791 155 L 792 189 L 792 227 L 796 289 L 798 310 L 799 335 L 798 368 L 801 447 L 803 548 L 811 619 L 811 649 L 800 666 L 791 674 L 787 675 L 753 671 L 728 675 L 699 675 L 666 678 L 532 679 L 443 683 L 440 686 L 426 706 L 422 718 L 421 727 L 419 768 L 426 826 L 425 868 L 427 889 L 423 901 L 421 904 L 413 908 L 396 910 L 367 909 L 229 915 L 204 918 L 175 918 L 95 923 L 84 929 L 80 936 L 80 945 L 101 990 L 103 1003 L 102 1011 L 88 1032 L 81 1047 L 79 1056 L 78 1093 L 85 1113 L 92 1123 L 101 1133 L 111 1140 L 131 1145 L 148 1145 L 156 1148 L 193 1144 L 206 1146 L 227 1144 L 265 1146 L 307 1144 L 365 1145 L 381 1144 L 394 1145 L 474 1146 L 503 1149 L 537 1144 L 616 1147 L 654 1146 L 691 1143 L 729 1145 L 766 1142 L 796 1144 L 812 1138 L 834 1128 L 850 1108 L 854 1101 L 860 1050 L 859 1039 L 853 1018 L 847 1007 L 813 969 L 811 962 L 812 957 L 814 954 L 829 946 L 845 941 L 916 946 L 941 946 L 949 946 L 982 938 L 990 938 L 1002 941 L 1016 957 L 1017 966 L 1015 977 L 1008 988 L 997 995 L 985 999 L 984 1004 L 980 1028 L 977 1053 L 978 1082 L 984 1098 L 997 1118 L 1017 1135 L 1024 1139 L 1032 1143 L 1044 1141 L 1055 1129 L 1059 1121 L 1063 1109 L 1067 1085 L 1064 1051 L 1064 1030 L 1068 1014 L 1074 947 L 1078 931 L 1080 880 L 1082 842 L 1082 759 L 1086 717 L 1085 684 L 1093 579 L 1095 537 L 1094 495 L 1096 453 L 1100 332 L 1117 161 L 1117 140 L 1120 116" stroke="#006400" stroke-width="2" fill="none"/>
<path d="M 1078 619 L 1078 65 L 1069 65 L 1069 680 M 1069 789 L 1069 871 L 1058 988 L 1058 65 L 1048 65 L 1066 694 L 1064 767 M 1048 675 L 1048 1101 L 1038 1130 L 1038 65 L 1028 70 L 1028 1130 L 1018 1126 L 1018 997 L 1008 1001 L 1008 1118 L 998 1101 L 999 1029 M 1070 383 L 1089 85 M 1100 70 L 1105 70 L 1105 179 L 1095 237 L 1097 88 M 1107 74 L 1106 96 M 1024 70 L 1024 951 L 1014 938 L 1014 65 L 1004 70 L 1004 930 L 994 925 L 994 70 L 984 70 L 984 925 L 973 925 L 974 65 L 964 70 L 964 930 L 954 930 L 954 70 L 944 70 L 944 934 L 933 934 L 933 70 L 923 70 L 923 934 L 913 930 L 913 70 L 903 70 L 902 930 L 893 930 L 893 70 L 883 70 L 883 930 L 873 930 L 873 70 L 863 70 L 862 930 L 852 925 L 853 70 L 843 70 L 843 925 L 832 930 L 833 70 L 823 70 L 821 913 M 808 297 L 812 305 L 812 99 L 802 99 L 803 219 M 808 695 L 808 946 L 802 950 L 802 701 M 844 1035 L 844 1080 L 834 1118 L 834 1009 L 824 1000 L 824 1122 L 813 1126 L 813 983 L 803 976 L 803 1130 L 793 1134 L 793 682 L 783 691 L 783 1130 L 773 1130 L 773 691 L 763 682 L 763 1130 L 753 1130 L 753 682 L 743 682 L 743 1134 L 733 1134 L 733 691 L 723 691 L 723 1134 L 713 1134 L 713 691 L 703 691 L 703 1134 L 693 1130 L 693 691 L 683 691 L 683 1130 L 672 1134 L 672 691 L 662 695 L 662 1134 L 652 1134 L 652 695 L 642 695 L 642 1134 L 632 1134 L 632 695 L 622 695 L 622 1134 L 612 1134 L 612 695 L 602 695 L 601 1134 L 591 1134 L 591 694 L 582 694 L 582 1134 L 572 1134 L 572 694 L 562 694 L 561 1134 L 552 1134 L 552 694 L 542 694 L 542 1134 L 531 1134 L 532 694 L 521 694 L 521 728 M 511 717 L 511 694 L 501 694 L 501 712 M 501 712 L 491 694 L 480 694 L 480 712 M 481 712 L 471 694 L 460 698 L 460 736 M 461 722 L 450 722 L 450 698 L 440 706 L 439 1114 M 448 1134 L 448 748 L 453 764 M 459 847 L 459 1134 L 469 1134 L 469 826 M 470 829 L 479 828 L 479 1134 L 489 1139 L 489 827 M 489 827 M 499 848 L 499 1139 L 510 1139 L 510 826 M 508 826 L 519 827 L 518 1087 M 433 1134 L 433 1032 M 433 1034 M 422 1038 L 422 1134 L 412 1134 L 412 1039 M 412 1040 M 402 1040 L 402 1134 L 391 1134 L 391 1038 M 391 1037 L 382 1037 L 382 1134 L 371 1134 L 371 925 L 362 925 L 362 1134 L 351 1134 L 351 925 L 342 925 L 342 1134 L 332 1134 L 332 925 L 321 925 L 321 1134 L 311 1134 L 311 925 L 301 925 L 301 1134 L 292 1134 L 292 1114 L 292 946 L 284 946 M 281 1038 L 281 1134 L 271 1134 L 271 1041 M 261 1042 L 261 1134 L 250 1134 L 250 1045 M 240 1046 L 240 1134 L 230 1134 L 230 1041 M 220 1042 L 220 1134 L 210 1134 L 210 934 L 200 934 L 200 1134 L 190 1134 L 190 934 L 180 934 L 180 1134 L 170 1134 L 170 934 L 160 934 L 160 1134 L 150 1134 L 150 934 L 140 934 L 140 1134 L 130 1134 L 130 938 L 125 955 M 120 1038 L 120 1130 L 114 1130 L 114 1071 L 114 1048 M 114 1038 L 114 1130 L 114 1039 M 99 1035 L 109 1025 L 109 1101 L 102 1105 L 102 1079 M 104 1080 M 81 1066 L 83 1056 L 88 1045 L 89 1035 L 97 1028 L 102 1018 L 106 1009 L 106 997 L 104 987 L 100 978 L 94 967 L 89 959 L 85 951 L 85 938 L 90 930 L 100 928 L 113 928 L 125 928 L 138 924 L 151 924 L 163 924 L 176 924 L 188 924 L 201 924 L 213 924 L 222 920 L 239 920 L 251 920 L 264 920 L 276 920 L 289 920 L 297 915 L 310 915 L 323 915 L 339 915 L 352 915 L 365 915 L 377 915 L 390 915 L 402 915 L 412 913 L 422 909 L 429 896 L 429 884 L 429 871 L 429 858 L 429 846 L 429 829 L 429 816 L 427 806 L 425 795 L 425 783 L 423 773 L 421 762 L 425 753 L 425 738 L 425 727 L 425 716 L 429 708 L 435 701 L 440 693 L 448 689 L 461 689 L 474 685 L 486 685 L 499 685 L 511 685 L 524 685 L 537 685 L 549 685 L 562 685 L 579 685 L 591 685 L 604 685 L 616 685 L 629 685 L 641 685 L 654 685 L 667 685 L 679 680 L 692 680 L 704 680 L 717 680 L 730 680 L 744 678 L 755 676 L 766 676 L 776 680 L 788 680 L 798 675 L 804 668 L 808 660 L 815 649 L 815 636 L 815 623 L 815 611 L 811 602 L 811 590 L 811 577 L 809 567 L 807 552 L 807 540 L 807 527 L 807 514 L 807 502 L 807 489 L 807 477 L 807 465 L 803 451 L 803 439 L 803 426 L 803 418 L 803 405 L 803 397 L 803 380 L 803 368 L 803 356 L 803 347 L 803 335 L 803 322 L 803 314 L 803 300 L 798 293 L 798 281 L 798 269 L 798 258 L 798 246 L 797 236 L 794 222 L 794 209 L 794 197 L 794 185 L 794 173 L 794 160 L 794 148 L 794 136 L 794 120 L 794 107 L 794 95 L 790 86 L 793 79 L 798 70 L 807 65 L 818 63 L 830 59 L 843 59 L 855 59 L 868 59 L 881 59 L 897 59 L 910 59 L 923 59 L 935 59 L 948 59 L 960 59 L 969 55 L 977 59 L 994 59 L 1006 59 L 1015 55 L 1023 59 L 1035 59 L 1044 55 L 1057 55 L 1065 55 L 1078 55 L 1090 55 L 1099 59 L 1111 63 L 1116 72 L 1118 81 L 1118 93 L 1118 104 L 1116 114 L 1114 124 L 1114 136 L 1114 151 L 1114 163 L 1114 175 L 1110 183 L 1110 195 L 1110 206 L 1110 217 L 1107 227 L 1105 241 L 1105 253 L 1105 264 L 1101 271 L 1101 283 L 1101 294 L 1101 305 L 1097 313 L 1097 329 L 1097 341 L 1097 353 L 1097 365 L 1097 377 L 1097 388 L 1095 399 L 1093 409 L 1093 426 L 1093 439 L 1093 451 L 1093 464 L 1093 477 L 1089 486 L 1089 498 L 1089 510 L 1093 523 L 1093 531 L 1093 543 L 1089 553 L 1089 565 L 1089 577 L 1089 590 L 1089 602 L 1089 615 L 1084 623 L 1084 636 L 1084 653 L 1084 665 L 1084 678 L 1080 686 L 1080 699 L 1084 707 L 1084 716 L 1080 724 L 1080 737 L 1080 749 L 1080 762 L 1080 779 L 1080 791 L 1080 804 L 1080 816 L 1080 829 L 1080 842 L 1080 854 L 1076 863 L 1076 879 L 1076 892 L 1076 904 L 1076 917 L 1071 926 L 1071 938 L 1067 947 L 1067 959 L 1067 976 L 1067 988 L 1063 997 L 1063 1009 L 1063 1022 L 1058 1035 L 1058 1047 L 1058 1060 L 1063 1068 L 1063 1080 L 1058 1090 L 1058 1100 L 1058 1111 L 1054 1123 L 1047 1130 L 1041 1135 L 1032 1138 L 1022 1133 L 1010 1123 L 1001 1115 L 991 1107 L 987 1097 L 983 1090 L 983 1079 L 981 1070 L 979 1060 L 979 1048 L 983 1039 L 983 1029 L 985 1019 L 987 1009 L 994 1004 L 1001 999 L 1010 992 L 1017 984 L 1021 976 L 1021 963 L 1018 952 L 1011 944 L 998 936 L 985 936 L 973 936 L 962 938 L 952 941 L 944 945 L 931 945 L 918 945 L 906 941 L 893 941 L 881 941 L 868 941 L 859 936 L 847 936 L 836 938 L 828 942 L 815 947 L 807 956 L 807 967 L 812 977 L 821 986 L 829 994 L 838 1003 L 843 1011 L 849 1022 L 851 1032 L 853 1043 L 853 1051 L 853 1064 L 851 1078 L 849 1089 L 849 1102 L 845 1110 L 838 1118 L 826 1125 L 818 1129 L 808 1135 L 800 1138 L 790 1139 L 780 1138 L 767 1138 L 751 1138 L 741 1142 L 730 1142 L 717 1142 L 704 1142 L 692 1138 L 680 1138 L 672 1142 L 659 1142 L 646 1142 L 635 1142 L 622 1142 L 610 1142 L 594 1142 L 581 1142 L 569 1142 L 557 1142 L 544 1142 L 532 1142 L 520 1142 L 506 1146 L 495 1146 L 485 1142 L 474 1142 L 457 1142 L 444 1142 L 432 1142 L 419 1142 L 407 1142 L 394 1142 L 381 1142 L 369 1142 L 352 1142 L 339 1142 L 327 1142 L 314 1142 L 302 1142 L 289 1142 L 276 1142 L 264 1142 L 247 1142 L 235 1142 L 222 1142 L 209 1142 L 197 1142 L 184 1142 L 172 1142 L 159 1142 L 146 1142 L 134 1142 L 123 1139 L 113 1138 L 105 1130 L 94 1123 L 89 1114 L 85 1106 L 81 1097 L 81 1086 L 81 1070 L 81 1059 L 85 1051 L 87 1049 M 89 1043 L 92 1033 L 99 1024 L 104 1015 L 106 1005 L 106 989 L 102 981 L 98 972 L 94 964 L 89 956 L 85 946 L 85 935 L 92 928 L 109 928 L 121 928 L 133 928 L 142 924 L 155 924 L 167 924 L 180 924 L 193 924 L 209 924 L 218 920 L 230 920 L 243 920 L 255 920 L 272 920 L 285 920 L 295 917 L 306 915 L 318 915 L 331 915 L 344 915 L 356 915 L 373 915 L 386 915 L 398 915 L 410 915 L 418 911 L 427 903 L 429 892 L 429 879 L 429 863 L 429 850 L 429 837 L 429 825 L 429 812 L 425 804 L 425 791 L 425 779 L 421 766 L 425 758 L 425 746 L 425 734 L 425 723 L 427 713 L 433 705 L 438 696 L 444 689 L 457 689 L 467 686 L 478 685 L 490 685 L 507 685 L 520 685 L 532 685 L 545 685 L 558 685 L 570 685 L 583 685 L 595 685 L 612 685 L 625 685 L 637 685 L 650 685 L 662 685 L 672 682 L 683 680 L 696 680 L 713 680 L 725 680 L 738 680 L 746 676 L 759 676 L 769 678 L 780 680 L 792 680 L 802 671 L 807 662 L 813 655 L 815 644 L 815 632 L 815 619 L 815 607 L 811 598 L 811 581 L 811 570 L 807 560 L 807 548 L 807 535 L 807 519 L 807 506 L 807 493 L 807 481 L 807 468 L 803 460 L 803 447 L 803 435 L 803 418 L 803 405 L 803 397 L 803 380 L 803 368 L 803 356 L 803 347 L 803 335 L 803 322 L 803 314 L 803 300 L 798 293 L 798 281 L 798 269 L 798 258 L 798 246 L 797 236 L 794 222 L 794 209 L 794 197 L 794 185 L 794 173 L 794 160 L 794 148 L 794 136 L 794 120 L 794 107 L 794 95 L 790 86 L 793 79 L 798 70 L 807 65 L 818 63 L 830 59 L 843 59 L 855 59 L 868 59 L 881 59 L 897 59 L 910 59 L 923 59 L 935 59 L 948 59 L 960 59 L 969 55 L 977 59 L 994 59 L 1006 59 L 1015 55 L 1023 59 L 1035 59 L 1044 55 L 1057 55 L 1065 55 L 1078 55 L 1090 55 L 1099 59 L 1111 63 L 1116 72 L 1118 81 L 1118 93 L 1118 104 L 1116 114 L 1114 124 L 1114 136 L 1114 151 L 1114 163 L 1114 175 L 1110 183 L 1110 195 L 1110 206 L 1110 217 L 1107 227 L 1105 241 L 1105 253 L 1105 264 L 1101 271 L 1101 283 L 1101 294 L 1101 305 L 1097 313 L 1097 329 L 1097 341 L 1097 353 L 1097 365 L 1097 377 L 1097 388 L 1095 399 L 1093 409 L 1093 426 L 1093 439 L 1093 451 L 1093 464 L 1093 477 L 1089 486 L 1089 498 L 1089 510 L 1093 523 L 1093 531 L 1093 543 L 1089 553 L 1089 565 L 1089 577 L 1089 590 L 1089 602 L 1089 615 L 1084 623 L 1084 636 L 1084 653 L 1084 665 L 1084 678 L 1080 686 L 1080 699 L 1084 707 L 1084 716 L 1080 724 L 1080 737 L 1080 749 L 1080 762 L 1080 779 L 1080 791 L 1080 804 L 1080 816 L 1080 829 L 1080 842 L 1080 854 L 1076 863 L 1076 879 L 1076 892 L 1076 904 L 1076 917 L 1071 926 L 1071 938 L 1067 947 L 1067 959 L 1067 976 L 1067 988 L 1063 997 L 1063 1009 L 1063 1022 L 1058 1035 L 1058 1047 L 1058 1060 L 1063 1068 L 1063 1080 L 1058 1090 L 1058 1100 L 1058 1111 L 1054 1123 L 1047 1130 L 1041 1135 L 1032 1138 L 1022 1133 L 1010 1123 L 1001 1115 L 991 1107 L 987 1097 L 983 1090 L 983 1079 L 981 1070 L 979 1060 L 979 1048 L 983 1039 L 983 1029 L 985 1019 L 987 1009 L 994 1004 L 1001 999 L 1010 992 L 1017 984 L 1021 976 L 1021 963 L 1018 952 L 1011 944 L 998 936 L 985 936 L 973 936 L 962 938 L 952 941 L 944 945 L 931 945 L 918 945 L 906 941 L 893 941 L 881 941 L 868 941 L 859 936 L 847 936 L 836 938 L 828 942 L 815 947 L 807 956 L 807 967 L 812 977 L 821 986 L 829 994 L 838 1003 L 843 1011 L 849 1022 L 851 1032 L 853 1043 L 853 1051 L 853 1064 L 851 1078 L 849 1089 L 849 1102 L 845 1110 L 838 1118 L 826 1125 L 818 1129 L 808 1135 L 800 1138 L 790 1139 L 780 1138 L 767 1138 L 751 1138 L 741 1142 L 730 1142 L 717 1142 L 704 1142 L 692 1138 L 680 1138 L 672 1142 L 659 1142 L 646 1142 L 635 1142 L 622 1142 L 610 1142 L 594 1142 L 581 1142 L 569 1142 L 557 1142 L 544 1142 L 532 1142 L 520 1142 L 506 1146 L 495 1146 L 485 1142 L 474 1142 L 457 1142 L 444 1142 L 432 1142 L 419 1142 L 407 1142 L 394 1142 L 381 1142 L 369 1142 L 352 1142 L 339 1142 L 327 1142 L 314 1142 L 302 1142 L 289 1142 L 276 1142 L 264 1142 L 247 1142 L 235 1142 L 222 1142 L 209 1142 L 197 1142 L 184 1142 L 172 1142 L 159 1142 L 146 1142 L 134 1142 L 123 1139 L 113 1138 L 105 1130 L 94 1123 L 89 1114 L 85 1106 L 81 1097 L 81 1086 L 81 1070 L 81 1059 L 85 1051 L 89 1043 L 92 1033 L 88 1058" stroke="#ffa500" stroke-width="2" fill="none"/>
<polygon points="485,780 480,768 497,764 501,776" fill="#ff4d0065" stroke="#ff4d00"/>
<polygon points="401,994 392,982 409,973 417,982" fill="#ff4d0065" stroke="#ff4d00"/>
<polygon points="237,998 233,990 245,982 250,990" fill="#ff4d0065" stroke="#ff4d00"/>
<text x="600" y="30" font-family="Arial, sans-serif" font-size="16" font-weight="bold" fill="#000000" text-anchor="middle">Dreame Mower Map (Historical: map.json)</text>
<rect x="20" y="50" width="15" height="10" fill="#006400"/>
<text x="40" y="58" font-family="Arial, sans-serif" font-size="10" fill="#000000">Map Boundary</text>
<rect x="20" y="70" width="15" height="10" fill="#ffa500"/>
<text x="40" y="78" font-family="Arial, sans-serif" font-size="10" fill="#000000">Mowing Path</text>
<rect x="20" y="90" width="15" height="10" fill="#ff4d00"/>
<text x="40" y="98" font-family="Arial, sans-serif" font-size="10" fill="#000000">Obstacles</text>
<rect x="20" y="110" width="15" height="10" fill="#b4b4b4"/>
<text x="40" y="118" font-family="Arial, sans-serif" font-size="10" fill="#000000">Trajectory</text>
<g><rect x="7" y="1172" width="174.0" height="18" fill="#f5f5f0" stroke="#000000"/><text x="10" y="1185" font-family="Arial, sans-serif" font-size="10" fill="#000000">Started: 2026-03-22 15:01:30</text></g>
</svg>